<?xml version="1.0" encoding="UTF-8"?>
<svg id="Calque_1" data-name="Calque 1" xmlns="http://www.w3.org/2000/svg" viewBox="0 0 24 24">
  <path d="M5.52,23.66c-1.66,0-2.99-.52-4-1.55s-1.52-2.48-1.52-4.33V7.21c0-2.22.44-3.92,1.32-5.1S3.64.34,5.62.34c1.08,0,2.05.2,2.9.6s1.51,1,2,1.79.73,1.79.73,3v3.96h-4.56v-3.38c0-.69-.09-1.15-.26-1.39s-.44-.36-.81-.36c-.43,0-.71.15-.86.46s-.22.72-.22,1.23v11.47c0,.63.09,1.08.28,1.34s.45.39.8.39c.39,0,.67-.16.83-.48s.24-.74.24-1.25v-4.13h4.61v4.33c0,2.01-.51,3.47-1.52,4.38s-2.43,1.36-4.26,1.36Z"/>
  <path d="M14.93,23.45L12.1.53h4.36l1.68,15.59,1.5-15.59h4.36l-2.82,22.92h-6.25Z"/>
</svg>