<?xml version="1.0" encoding="UTF-8"?>
<svg id="Calque_1" data-name="Calque 1" xmlns="http://www.w3.org/2000/svg" viewBox="0 0 24 24">
  <g>
    <path d="M23.9,7.72c-.54-1.16-3.24-1.29-6.49-.71-.68-.64-1.46-1.18-2.28-1.58-.64-.31-3.1-1.45-5.98-.57-3.3,1.02-5.29,4.21-5.66,7.19-.05.43-.08.88-.07,1.33C1.12,15.26-.38,17.16.09,18.27c.45,1.06,2.69,1.38,5.52,1.1.05,0,.1-.01.15-.02.75-.08,1.54-.2,2.35-.37.09-.02.19-.04.28-.06.94-.2,1.9-.45,2.85-.76.16-.04.33-.09.5-.13.07.15.03.29-.16.4-.19.11-.38.22-.55.37-.16.14-.28.33-.42.49.03.03.06.06.09.1.07-.05.16-.09.22-.15.18-.16.34-.34.53-.48.28-.2.59-.37.56-.79,0-.04.02-.07.04-.1.52-.18,1.04-.39,1.54-.6,1.21-.52,2.41-1.16,3.54-1.86.12.19.51.43.9.5-.23-.21-.46-.42-.69-.63.95-.6,1.84-1.24,2.65-1.89.04-.03.08-.06.12-.1,2.65-2.16,4.34-4.41,3.79-5.59ZM4.02,12.12c.09-.7.4-2.41,1.63-4.08.46-.63,1-1.17,1.59-1.61.63-.47,1.32-.82,2.06-1.05.66-.2,1.35-.31,2.05-.31.74,0,1.5.11,2.25.34.58.17,1.01.37,1.28.5.38.18.76.41,1.12.66.26.18.51.37.74.58.3.29.61.62.92.98.26.3.49.59.7.87.33.44.49.85.57,1.05.17.39.36.96.46,1.67-.45.34-.91.69-1.36,1.03.35-1.36-.08-2.75-.71-3.65-.3-.43-.68-.8-1.15-1.09-.59-.36-1.23-.52-1.86-.54-.08,0-.17,0-.25,0-.5,0-1.01.09-1.52.26-.45.15-.89.38-1.27.64-.01.01-.03.02-.05.03-.18.13-.49.34-.79.65-.37.38-.65.81-.82,1.29h0c-.18.49-.25,1-.22,1.53.03.52.16,1.05.39,1.53,0,.02.02.03.02.05-.18.02-.37.03-.55.03-.28,0-.5.1-.65.34-.04.06-.1.12-.15.18-.3.37-.3.36-.73.19-.17-.07-.35-.18-.6,0,.39.12.72.23,1.06.33.04.01.12-.05.16-.09.07-.06.14-.13.2-.2.27-.36.62-.54,1.08-.52.09,0,.17-.02.27-.04.32.59.7.94.78,1.02.39.35.8.58,1.19.73.43.18.82.26,1.08.3-.02,0-.05.02-.07.03,0,0,0,0,0,0-.02,0-.04.02-.06.02-.02,0-.03.01-.05.02-.01,0-.02,0-.03.01-.02,0-.03.01-.05.02-.04.02-.07.03-.11.04-.02,0-.03.01-.05.02-.01,0-.03.01-.04.02-.01,0-.02.01-.04.02-.15.06-.3.12-.45.18-.02,0-.03.01-.04.02-.03.01-.05.02-.08.03-.02,0-.04.01-.05.02l-.07.02s-.03.01-.04.02c-.02,0-.03.01-.05.02-.02,0-.03.01-.05.02-.01,0-.03.01-.04.02-.02,0-.03.01-.05.02-.02,0-.04.01-.06.02s-.04.01-.06.02c-.04.01-.08.03-.12.04-.02,0-.03.01-.05.02l-.13.05s-.04.01-.06.02c-.01,0-.03,0-.04.01-.03,0-.06.02-.08.03-.02,0-.04.01-.05.02-.02,0-.04.01-.06.02-.02,0-.04.01-.06.02-.02,0-.04.01-.06.02-.02,0-.04.01-.06.02-.02,0-.04.01-.06.02-.14.05-.29.09-.43.13-.02,0-.04.01-.05.02-.06.02-.13.04-.19.06-.02,0-.04.01-.06.02-.02,0-.04.01-.06.02-.11.03-.23.06-.34.09-.02,0-.04.01-.06.02-.02,0-.03,0-.05.01-.02,0-.04,0-.05.01-.02,0-.04,0-.06.01-.01,0-.03,0-.04.01-.02,0-.03,0-.05.01-.04,0-.07.02-.11.03-.02,0-.04.01-.06.02-.05.01-.1.02-.15.04-.03,0-.07.02-.1.02-.04.01-.09.02-.13.03-.02,0-.04,0-.06.01-.01,0-.02,0-.04,0-.02,0-.04,0-.05.01-.05.01-.11.02-.16.04-.02,0-.04,0-.06.01-.03,0-.05.01-.08.02-.04,0-.07.02-.11.02-.02,0-.04,0-.07.01-.06.01-.12.03-.18.04h0s-.04,0-.06.01c-.04,0-.08.02-.12.02-.03,0-.07.01-.1.02,0,0-.02,0-.03,0-.02,0-.04,0-.06.01-.04,0-.08.02-.12.02-.03,0-.05,0-.08.01-.05,0-.1.02-.15.03-.03,0-.05,0-.08.01-.02,0-.04,0-.06,0-.05,0-.09.02-.14.02-.02,0-.04,0-.05,0h-.05s-.03.01-.05.02c-.02,0-.03,0-.05,0-.02,0-.05,0-.07.01-.01,0-.02,0-.03,0h-.05s-.04.01-.06.02c-.03,0-.06,0-.09.01-.03,0-.06,0-.09.01-.02,0-.04,0-.06,0-.02,0-.04,0-.06,0-.04,0-.08.01-.12.02-.03,0-.06,0-.08.01,0,0,0,0,0,0-.02,0-.05,0-.07,0-.02,0-.03,0-.05,0-.02,0-.03,0-.05,0h0s-.03,0-.05,0c-.01,0-.02,0-.04,0-.02,0-.05,0-.07,0-.02,0-.04,0-.06,0-.01,0-.03,0-.04,0-.02,0-.04,0-.05,0-.01,0-.02,0-.03,0-.02,0-.05,0-.07,0-.02,0-.03,0-.05,0-.03,0-.07,0-.1,0l-.27-.51c-.23-.46-.49-1.11-.68-1.9-.36-1.51-.23-2.74-.18-3.17ZM18.71,8.53c.74-.1,1.43-.15,2.04-.15.73,0,1.18.08,1.44.14-.22.48-.84,1.41-2.26,2.7,0,0-.02.01-.02.02-.21-.96-.62-1.88-1.2-2.71ZM17.36,11.91c.06.02.19.12.17.2-.02.07-.16.09-.23.1-.46.07-.86-.17-.88-.11-.01.03.06.09.07.1.16.13.32.08.57.16.08.02.29.09.28.16,0,.08-.32.17-.62.15-.29-.02-.47-.13-.49-.09-.02.04.15.2.37.29.11.04.19.06.27.14.02.02.12.13.09.2-.03.07-.15.07-.21.07-.41,0-.73-.3-.75-.28-.01.02.14.21.4.38.18.11.32.16.33.26,0,.07-.07.12-.08.13-.07.06-.16.06-.24.05-.35-.03-.96-.37-.99-.34-.02.02.19.22.33.35.15.14.21.19.2.25-.01.08-.16.14-.27.16-.43.06-.83-.49-.88-.44-.03.03.22.25.22.59,0,.12-.03.28-.1.3-.04,0-.08-.04-.17-.14-.29-.32-.36-.37-.39-.4-.11-.08-.31-.18-.36-.13-.09.09.33.49.2.77-.04.07-.11.15-.18.14-.06,0-.1-.06-.18-.22-.18-.34-.16-.44-.29-.57-.09-.09-.24-.19-.3-.15-.05.03-.01.15,0,.33,0,.08.05.48-.06.62-.19.24-1.08-.02-1.73-.5-.84-.63-1.36-1.55-1.18-1.76.02-.02.15-.06.41-.14.28-.09.36-.11.36-.15,0-.03-.04-.07-.45-.2-.32-.1-.45-.13-.45-.16,0-.07.92.03.97-.16.03-.1-.2-.24-.21-.25-.27-.16-.52-.06-.57-.18-.03-.07.03-.17.09-.21.08-.04.18,0,.29.03.03,0,.06.02.09.03.28.12.57.24.87.31.02,0,.07,0,.13,0,.13-.01.3-.07.31-.14,0-.05-.09-.09-.22-.14-.66-.29-.55-.24-.65-.29-.19-.08-.38-.16-.58-.24-.25-.09-.3-.21-.18-.44.39-.77.9-1.39,1.81-1.63,0,.17.04.42.17.69.14.27.39.56.47.52.04-.02.05-.13.01-.25-.06-.23-.14-.45-.2-.68-.06-.21-.08-.32-.04-.39.07-.11.24-.18.36-.14.15.05.2.25.24.42.1.41-.02.62.15.94.03.05.09.16.16.16.06,0,.11-.12.13-.21.17-.56-.03-1.03.16-1.17.09-.07.26-.04.33.04.11.13-.09.35-.17.91-.02.14-.03.27-.04.43-.01.21,0,.26,0,.31.03.18.14.39.21.38.02,0,.05-.02.14-.4.05-.24.07-.35.07-.35.02-.16.05-.45.1-.84.04-.3.06-.47.18-.52.09-.04.22-.01.29.07.16.18-.01.6-.21,1.11-.08.2-.15.36-.11.57.03.15.12.32.19.32.07,0,.11-.17.12-.22,0,0,0,0,0,0,.05-.25.1-.51.16-.76.1-.47.03-.76.2-.84.09-.05.24-.02.3.06.05.06.05.15-.14.68-.07.2-.13.38-.17.64-.04.26,0,.3.02.3.07.03.22-.11.31-.25.18-.27.11-.44.31-.82.1-.2.17-.25.24-.27.13-.04.3.01.36.12.07.13,0,.31-.11.47-.25.36-.5.71-.75,1.07-.02.03-.06.08-.04.15,0,0,.01.05.05.07.06.04.15,0,.19-.03.23-.12.45-.45.45-.45.25-.38.59-.68.64-.65.04.03-.13.41-.37.76-.26.37-.52.59-.51.6.02.02.34-.22.66-.48.29-.24.39-.35.49-.31.11.04.18.26.11.4-.04.08-.11.12-.29.2-.36.16-.62.25-.61.27,0,.02.3-.06.69-.01.1.01.3.04.31.11,0,.07-.19.16-.28.2-.13.05-.32.12-.57.13.23.05.45.08.67.15ZM4.57,17.75s-.05,0-.07,0c-.25.01-.5.02-.74.02h0c-.98,0-1.6-.11-1.93-.22.22-.4.75-1.13,1.86-2.14.19.81.48,1.61.88,2.34ZM23.4,8.63c-.1.35-.32.75-.63,1.21-.32.46-.74.96-1.25,1.48-.77.79-1.44,1.33-1.74,1.58-1.27,1.03-2.41,1.76-3.08,2.17-1.63.99-2.95,1.57-3.31,1.73-.4.17-1.85.79-3.86,1.31-.47.12-2.01.51-3.97.73,0,0-.76.1-1.79.1-.92,0-1.7-.09-2.27-.27-.27-.08-.48-.18-.64-.3-.13-.09-.22-.2-.27-.3-.06-.15-.06-.36.02-.61.16-.52.45-.9.55-1.03.54-.71.81-1.06,1.23-1.44.26-.24.63-.55,1.09-.85.03.28.07.56.1.83h0c-.35.24-.62.45-.81.6-.13.11-1.12.92-1.41,1.73-.04.12-.09.29-.02.45.06.15.18.26.34.31.35.11,1.01.24,2.09.24h0c.43,0,1-.03,1.67-.09.36-.03,1.65-.16,3.43-.59,2.23-.54,3.88-1.24,4.27-1.41,0,0,2.52-1.09,5.15-2.96.46-.33,1-.72,2-1.62,1.3-1.17.73-.9,1.67-1.74,0,0,.46-.52.75-1.15.07-.14.07-.31,0-.45-.07-.14-.19-.25-.35-.29-.48-.13-.99-.19-1.58-.16-.58.03-.87.04-1.27.09,0,0-.16.02-1.08.16-.15-.2-.32-.43-.5-.63.17-.03.36-.06.58-.09.22-.03.46-.06.72-.08.71-.07,1.25-.08,1.56-.07.58,0,1.22.01,1.89.23.28.09.64.25.76.51.04.08.05.16.05.27,0,.12-.02.26-.07.42Z"/>
    <path d="M15.32,11.5c-.12-.33-.43-.57-.85-.58-.21,0-.43-.04-.64-.09-.09-.02-.18-.03-.26-.03-.32,0-.63.16-.84.39-.21.23-.34.54-.3.86,0,0,0,0,0,.01.08.62.78,1.23,1.48,1.22.65-.06,1.1-.5,1.38-1.13.1-.23.1-.46.03-.66ZM14.8,11.94c-.11.26-.25.46-.41.59-.15.13-.31.2-.5.22-.2,0-.42-.1-.61-.25-.17-.15-.29-.34-.32-.5,0,0,0-.01,0-.02-.02-.15.04-.3.16-.43.12-.13.3-.22.46-.22,0,0,0,0,0,0,.05,0,.08,0,.12.01,0,0,0,0,0,0,.24.06.49.09.74.1,0,0,0,0,0,0,.17,0,.31.09.36.23,0,0,0,0,0,0,.03.08.02.17-.02.26Z"/>
  </g>
  <path d="M6.25,10.79c.32-.28.65-.24.97-.14.24.07.43.03.64-.1.3-.19.64-.34.96-.5.05-.02.15-.03.17,0,.12.16.23.33.34.5-.04.03-.08.07-.12.1-.08-.14-.15-.29-.23-.43-.44.23-.79.42-1.14.59-.09.04-.19.08-.29.08-.38,0-.76-.03-1.14-.06-.05,0-.09-.02-.17-.04Z"/>
  <path d="M10.1,8.49c-.21-.13-.36-.27-.54-.33-.19-.07-.27-.13-.2-.34.04-.11.03-.24.1-.39.05.07.16.15.15.21-.05.28.14.29.33.35.09.03.18.15.21.25.02.09-.04.2-.05.25Z"/>
  <path d="M6.14,16.91c.13-.19.24-.36.37-.53.02-.03.1-.02.15-.03,0,.06.04.12.02.18-.04.16-.09.33-.16.48-.04.08-.12.14-.18.21-.06-.09-.11-.18-.2-.31Z"/>
  <path d="M5.78,15.24c-.04-.2.06-.33.23-.3.08.02.17.22.18.34,0,.09-.11.26-.18.27-.22.03-.26-.13-.22-.31Z"/>
  <path d="M8.37,18.93c-.35.09-.7.19-1.06.28l.78-.22c.09-.02.19-.04.28-.06Z"/>
</svg>