<?xml version="1.0" encoding="UTF-8"?>
<svg id="Calque_1" data-name="Calque 1" xmlns="http://www.w3.org/2000/svg" viewBox="0 0 24 24">
  <defs>
    <style>
      .cls-1 {
        fill: none;
      }

      .cls-2 {
        fill: #1d1d1b;
      }
    </style>
  </defs>
  <path class="cls-1" d="M0,0h24v24H0V0Z"/>
  <path class="cls-2" d="M23.93,12.06c-.08-.03-.17-.03-.26-.04-.13-.03-.26-.1-.36-.18-.1-.09-.18-.21-.29-.29-.08-.07-.1-.19-.16-.27-.04-.06-.1-.13-.06-.2.03-.06.12-.04.2-.05.13-.02.24-.12.36-.17.05-.03.12-.05.15-.1,0-.01,0-.02-.04-.03-.07-.02-.16-.03-.24-.03-.18.02-.27-.1-.42-.13-.08,0-.11.05-.19.05-.08,0-.19-.06-.16-.16.01-.07.11-.36.21-.22.02.05.03.15.09.14.17-.11.11-.41-.09-.45-.3-.07-.29.12-.46.18-.09-.04,0-.2-.11-.24-.09-.04-.19.07-.27.07-.2-.06.05-.35.08-.46.16-.41-.29-.14-.46-.07-.27,0-.16-.12-.39.11-.13.11-.11-.17-.29-.15-.12,0-.27.04-.38.02-.23-.04-.29-.32-.35-.51-.04-.15-.13-.32-.02-.43.17-.14.04-.19-.1-.24-.07-.02-.14-.07-.21-.1-.21-.02-.23-.09-.39-.23-.03-.03-.08-.08-.06-.01.05.09.11.21.11.3,0,.1.04.19.07.28.03.11,0,.19.03.29.06.14.11.31.22.41.51.33.05.43-.3.4-.56-.03-.02-.34-.59-.63-.1-.08-.28-.14-.24-.26.03-.05.11-.09.15-.13.09-.09-.2-.12-.29-.1-.09,0-.1.07-.1.14-.04.06-.25-.11-.35-.1-.21-.03-.25.22-.4.3-.09.06-.25.04-.32.12,0,.01,0,.02.02.03.12.07.31.04.42.05.09.01.17.05.27.06.1.02.21-.04.31-.02.09.02.17.1.17.2-.02.12-.19.14-.29.16-.24.01-.47-.11-.71-.12-.17,0-.32.05-.49.07-.09.01-.19.02-.28.03-.12.02-.18.06-.25.07-.11,0-.2-.07-.3-.12-.08-.04-.17-.08-.26-.12-.38-.21-.68-.57-1.08-.75-.14-.07-.28-.14-.41-.23-.15-.1-.36-.27-.53-.17-.1.1.11.29.22.3.09-.01.15-.11.26-.05.43.21.76.61,1.2.82.15.08.31.15.46.24.12.08.22.18.34.26.14.1.31.19.43.33.08.11.2.25.26.37,0,.04-.06.04-.12.03-.09,0-.16-.07-.23-.1,0,0-.01,0-.02,0-.07.09-.13.07-.24.05-.12,0-.21.1-.32.13-.18.04-.4.02-.59.02-.04,0-.16,0-.16-.03.18-.05.18-.21.22-.38.02-.08.09-.17.08-.26-.03-.09-.2-.01-.27-.15-.08-.15-.08-.05-.19-.11-.07-.04-.16-.15-.26-.15-.12,0-.28.06-.35.16-.14.22.17.4.14.62,0,.21-.15.18-.33.19-.29,0-.76.02-1.04.03-.43.01-.86.02-1.29,0-.18,0-.36-.1-.53-.06-.14.05-.08.15-.28.18-.29.05-.55.14-.83.2-.3.05-.61.05-.91.09-.12.02-.2.11-.32.1-.26-.02-.53-.13-.79-.09-.18.01-.31-.1-.48-.11-.22-.04-.47.02-.71.04-.13,0-.28.05-.38,0-.15-.09-.34-.03-.5-.08-.17-.06-.29,0-.48,0-.49,0-.97-.08-1.46-.08-.14,0-.89-.03-.33.03.19.02.4.05.6.07.18.03.39.01.45.18-.39.03-1.32-.13-1.84-.16-.62-.05-1.32-.05-1.92.13-.02.01-.03.03-.02.05.06.07.26.09.32.12.05.03-.09.03-.11.03-.27.01-.53,0-.79.05-.07.02-.13.06-.16.13-.02.03-.03.06,0,.08.06.05.15.05.24.06.36.02.72.03,1.09.04.13,0,.3,0,.41.01.07,0,.1.02.09.04-.27.22-.24.12-.53.06-.26-.02-.62-.05-.89-.05-.28-.02-.21.1-.39.16-.07.02-.37,0-.3.13.04.06.12.11.16.16.21.31-.17.24,0,.43.08.08.03.16-.04.25-.13.14-.1.35-.08.52.03.26-.34.42-.27.68H0c.01.07.06.13.12.17.02.02.05.04.07.02.05-.03.03-.09.09-.12.07-.03.17-.02.22.05.06.09-.02.2-.03.3-.12.35,1.01.28.49.46-.1.05.18.09.21.17.04.05.03.11.03.18,0,.13.09.25.21.3.08.03.14,0,.21.02.06.02.02.07-.02.08-.04.02-.11.02-.15.03-.02,0-.02.02.02.04.11.05.23.09.34.13.41.15.83.31,1.27.38.29.04.51-.19.7-.38.05-.05.11-.08.17-.08.07,0,.14.05.1.11-.03.04-.09.09-.07.14.07.09.2.15.3.2.11.05.19.11.3.19.31.21.47-.24.71-.36.28-.16.57-.37.9-.35.2.02.39.07.59.08.31.02.62-.03.93-.05.41-.02.92-.02,1.31-.03.16,0,.27-.07.41-.11.18-.05.38-.05.57-.1.46-.09.52-.12.83.26.16.14.03.27.3.21.22-.04.47-.07.63-.24.04-.03.1-.12.15-.13.03.07-.11.23-.1.32.03.05.1-.05.15-.13.1-.13.16-.36.33-.36.7,0,2.08.02,2.65.02.27,0,.84,0,1.07-.01.05,0,.1,0,.15-.04.09-.06.19-.27.32-.2.12.1-.03.28-.07.38-.04.08.02.11.09.07.09-.13.1-.08.21-.16.03-.03.05-.07.07-.1.03-.06.1-.12.17-.17h0c.08.04.18.09.3.15l-.06-.08h.05s0-.02,0-.03c0-.13.05-.25.14-.37.02-.02.03-.04.05-.06,0,0,0,0,.01-.01,0,0,0,0,0,0,0,0,.01-.01.02-.02.03-.03.06-.05.09-.08,0,0,.01-.01.02-.02.02-.02.04-.03.06-.05.01,0,.03-.02.04-.03s.03-.02.04-.03c0,0,0,0,0,0,.01,0,.03-.02.04-.03.01,0,.03-.02.04-.03.03-.02.05-.03.08-.05,0,0,0,0,0,0,.01,0,.03-.02.04-.03s.03-.02.05-.03c0,0,.01,0,.02,0,.02,0,.03-.02.05-.03,0,0,0,0,0,0,.02-.01.04-.02.07-.04.02,0,.03-.02.05-.03,0,0,.02-.01.03-.02.02-.01.04-.02.06-.03,0,0,0,0,0,0,.02-.01.05-.02.07-.04.02-.01.05-.02.07-.03,0,0,0,0,0,0,.02,0,.04-.02.06-.03,0,0,0,0,0,0,.03-.02.07-.03.1-.05.03-.01.07-.03.1-.04.01,0,.02,0,.03-.01.06-.02.11-.05.16-.07.01,0,.03-.01.04-.02.04-.02.07-.03.11-.04,0,0,0,0,0,0,0,0,0,0,0,0,0,0,0,0,0,0s0,0,0,0c0,0,0,0,0,0,.02-.01.03-.03.03-.05,0,0,0,0,0,0,0,0,0,0,0,0,0-.01,0-.02,0-.04-.05-.22-.09-.46-.12-.66-.03-.21-.14-.33-.26-.48-.02-.02-.04-.02-.09-.04-.39-.14-.6.08-.86-.06-.08-.04-.25-.15-.38-.28-.13-.11-.2-.16-.25-.21s-.07-.07-.09-.12c0-.02.01-.1.02-.2,0-.06.07-.11.13-.1,0,0,0,0,0,0,0,0,0,0,0,0,0,0,.02,0,.02,0,.03.02.45.28.84.31.05,0,.15,0,.27-.02.08-.02.07-.03.18-.06.1-.02.17-.03.28-.06,0,0,0,0,.01,0,0,0,0,0,.01,0,0,0,.02,0,.03-.01,0,0,0,0,0,0,0,0,.01,0,.02,0s.01,0,.02,0c0,0,.01,0,.02,0,0,0,.01,0,.02,0,.05-.02.07-.08.05-.13-.02-.07-.06-.14-.09-.18-.06-.07-.13-.15-.18-.2-.11-.11-.1-.43-.1-.5.01-.13.06-.2.08-.23.06-.09.07-.08.13-.11h0c.09-.03.12-.05.23-.06.03,0,.06,0,.1,0h.02s.02,0,.03,0c0,0,0,0,0,0,0,0,0,0,.01,0,0,0,0,0,0,0,0,0,.02,0,.02,0,0,0,0,0,.01,0,0,0,0,0,.01,0,0,0,0,0,0,0,0,0,0,0,.01,0,0,0,.01,0,.02.01h0s0,0,.01,0c.08.05.14.17.18.27s.07.26.09.36c0,.05,0,.07,0,.09,0,.11.02.17.09.25.02.02.02.04.06.06.04.02.07.02.11.02.02,0,.04,0,.06,0,0,0,.02,0,.03,0,.01,0,.03,0,.04,0,0,0,.02,0,.03,0,.03,0,.07-.02.1-.03.01,0,.02,0,.03,0s.02,0,.03,0c.03,0,.07-.02.1-.02,0,0,.02,0,.03,0h.01c.08,0,.22.03.3.07.19.08.38.16.57.23.07.03.14.06.2.09.07.03.15.08.21.11.06.04.13.07.17.1.07.06.12.06.15.14,0,0,0,.01,0,.02,0,0,0,.01,0,.02h0s0,.01,0,.02h0s0,0,0,0c0,0,0,.01,0,.02t0,0s0,.03.01.05c.01.07.02.14.02.22v.29s0,.1.02.14l.08.19c.02.05.05.09.08.13l.11.13s.03.05.02.07c-.02.03-.07,0-.1-.02l.03.06s0,.03,0,.04c-.03.03-.09,0-.12-.03-.06-.07-.08-.12-.14-.18.02.07.04.13.08.19,0,.02,0,.05-.01.06-.06.02-.12-.04-.15-.08-.02-.03-.04-.06-.05-.1-.02-.05-.05-.1-.1-.12,0,0,0,0-.01,0-.04-.01-.09.01-.13.04-.02.01-.03.03-.04.04s-.09.08-.18.07c-.04,0-.09-.02-.1-.06,0-.02.02-.04.03-.05.03-.01.07-.02.11-.07.02-.03.04-.06.06-.1l.1-.18s.03-.09.02-.14c-.02-.07-.04-.13-.08-.19l-.06-.1s-.03-.05-.04-.08h0s0,0,0,0h0s0-.03-.01-.05c-.01-.02-.04-.03-.06-.03-.02,0-.04,0-.07,0h0s-.03,0-.05,0-.07,0-.09,0c-.05,0-.16-.02-.19.02-.04.04-.03.08-.02.12.06.49-.09.88-.03,1.45.08.77.13.95.18,1.02.13.18.29.28.4.34,0,0,.02-.01.04-.02.11-.03.22,0,.33-.05.15-.08.3-.18.42-.3.17-.13,0-.44.22-.47.09,0,.2,0,.28-.06.11-.1-.04-.3-.13-.4-.09-.08-.21-.25-.04-.3.08,0,.16.14.23.1.03-.04.02-.09,0-.13-.05-.06-.12-.11-.2-.11-.08.01-.2-.07-.13-.15.04-.05.13-.04.18-.08.03-.04,0-.1-.05-.12-.04-.02-.08,0-.12.02-.03.01-.05.05-.07.01-.04-.08-.01-.29-.03-.41,0-.14-.06-.38.05-.46.06-.04.2-.03.28-.09.05-.03.08-.1.13-.12.19-.03.38.14.56.21.15.07.5.25.62.08,0-.02-.02-.04-.06-.06h0ZM2.74,11.18h.96c.33,0,.58.08.76.24.19.17.31.38.35.63h0c-.28.05-.49.1-.57.12,0,0,0,0,0,0-.02-.1-.07-.18-.15-.25-.11-.09-.24-.14-.4-.14h-.37v.65c-.15.05-.35.13-.58.24v-1.5h0ZM2.74,12.73s.34-.09.58-.16v.28h.37c.16,0,.3-.05.4-.14.1-.09.15-.22.16-.39h0c.13-.03.33-.08.58-.13,0,.02,0,.04,0,.06,0,.15-.03.3-.08.46,0,0,0,.01,0,.02-.22.04-.39.08-.46.1-.21.05-.53.13-.94.28-.16.06-.36.14-.59.24v-.62h0ZM3.32,14.68h-.58v-.46s.34-.09.58-.16v.62h0ZM3.33,13.34h0v.58c-.15.06-.35.13-.58.24v-.75s.35-.1.59-.16c.51-.14.77-.21.95-.25.09-.02.22-.05.37-.09-.04.07-.08.13-.13.19-.13.13-.3.23-.52.29l.18.28c-.14.04-.34.08-.56.16l-.3-.48h0ZM4.16,14.68l-.45-.73c.26-.07.42-.11.54-.14,0,0,.02,0,.03,0l.58.88h-.7ZM6.59,11.18h.45l.24.64c-.24,0-.48.02-.94.06h0l.26-.69h0ZM6.27,12.03h0c.47-.03.85-.02,1.08-.01l.17.45s-.08,0-.13,0c-.14,0-.27,0-.45.02l-.13-.4h0l-.14.42c-.07,0-.15.01-.24.02-.12,0-.24.02-.35.03l.2-.53h0ZM6.02,12.71c.13,0,.25-.02.35-.02.09,0,.17,0,.25-.01l-.16.48h.72l-.16-.49c.19,0,.35,0,.47,0,.04,0,.08,0,.13,0l.22.58v.04s-.06,0-.1,0h0c-.14,0-.29,0-.44,0-.24,0-.48.02-.94.06-.2.02-.39.03-.57.05l.26-.69h0ZM7.71,14.68l-.18-.5-.04-.11-.11-.29h-1.12l-.33.9h-.64l.42-1.12c.22-.02.41-.03.57-.04.38-.02.7-.02.93-.02h0c.05,0,.1,0,.15,0,.04,0,.09,0,.14,0h0c.12,0,.26.01.42.02l.13.35.05.15.25.66h-.64ZM9.01,12.18s.03,0,.05,0c.17.03.31.06.54.12-.05.1-.09.2-.11.31-.03,0-.07,0-.1-.01-.14-.02-.3-.04-.48-.06.02-.13.06-.25.11-.37h0ZM8.89,13.14s0-.1-.01-.15c0-.03,0-.05,0-.08,0-.04,0-.08,0-.12.11.02.23.04.35.06.07.01.13.03.2.04h0s.02,0,.02,0v.02s0,.08,0,.11c.01.15.05.3.11.44-.12-.02-.23-.03-.35-.05-.09-.01-.19-.02-.29-.04-.02-.08-.03-.16-.04-.24h0ZM11.36,14.46c-.07.05-.15.1-.22.13h0c-.2.1-.41.15-.63.15h0c-.45,0-.83-.18-1.15-.54-.12-.13-.21-.27-.28-.42-.02-.04-.04-.08-.05-.12.02,0,.04,0,.05,0,.1.02.19.04.29.06.09.02.19.04.31.07.05.01.1.02.15.04.19.2.41.3.67.3.1,0,.19-.02.28-.05.31.09.55.16.78.22-.06.05-.12.11-.19.15h0ZM11.78,14.04c-.22-.06-.42-.12-.63-.19.04-.04.09-.09.13-.14h.67c-.05.12-.1.23-.17.33h0ZM11.3,12.18c-.24-.31-.51-.46-.83-.46-.26,0-.49.11-.67.32-.23-.04-.4-.06-.58-.09-.03,0-.05,0-.08-.01.06-.1.13-.2.22-.29.32-.35.7-.53,1.14-.53.32,0,.61.1.88.29.27.19.46.45.59.78h-.66,0ZM12.51,12.97c.18.02.37.04.58.08.01.14.04.28.1.4-.19-.02-.4-.04-.63-.05-.03-.13-.05-.28-.05-.42h0ZM14.14,14.75c-.3,0-.57-.08-.81-.24.27,0,.49,0,.64,0,.22,0,.52.02.88.05-.22.13-.46.19-.71.19h0ZM15.49,13.89c-.06.11-.12.21-.2.3-.05.06-.1.11-.15.16-.35-.03-.77-.06-1.24-.05-.21,0-.41.02-.76.04-.05-.04-.1-.09-.14-.14-.16-.18-.27-.37-.35-.58.22.02.46.05.72.1.01.02.02.03.04.05.2.25.45.37.73.37.16,0,.31-.05.46-.14.11-.07.21-.16.31-.28,0,0,.01-.01.02-.02h.67c-.02.07-.05.13-.08.19h0ZM14.94,12.18c-.24-.31-.51-.46-.83-.46-.28,0-.52.12-.72.37-.17.21-.27.45-.29.71-.17-.02-.36-.04-.58-.05.03-.42.19-.79.47-1.1.32-.35.7-.53,1.14-.53.32,0,.61.1.88.29.27.19.46.45.59.78h-.66ZM16.85,11.36c0,.27-.22.48-.48.48h-.12c-.27,0-.48-.22-.48-.48v-.12c0-.27.22-.48.48-.48h.12c.27,0,.48.22.48.48v.12Z"/>
</svg>